<svg width="24" height="24" viewBox="0 0 24 24" fill="none" xmlns="http://www.w3.org/2000/svg">
<circle cx="12" cy="12" r="12" fill="#B93815"/>
<path d="M17.5005 9.77778H15.965L14.7115 7.72944C14.4315 7.27278 13.968 7 13.471 7H9.481C9.023 7 8.596 7.22778 8.3095 7.62556L6.76 9.77778H6.5C5.673 9.77778 5 10.5256 5 11.4444V13.6667C5 14.5856 5.673 15.3333 6.5 15.3333H6.571C6.7945 16.2889 7.571 17 8.5 17C9.429 17 10.2055 16.2889 10.429 15.3333H13.571C13.7945 16.2889 14.571 17 15.5 17C16.429 17 17.2055 16.2889 17.429 15.3333H17.5C18.327 15.3333 19 14.5856 19 13.6667V11.4444C19 10.5256 18.3275 9.77778 17.5005 9.77778ZM12.5005 8.11111H13.471C13.637 8.11111 13.7915 8.20222 13.8845 8.35444L14.7555 9.77778H12.5005V8.11111ZM9.0905 8.32C9.186 8.18722 9.329 8.11111 9.4815 8.11111H11.501V9.77778H8.041L9.0905 8.32ZM8.5005 15.8889C7.949 15.8889 7.5005 15.3906 7.5005 14.7778C7.5005 14.165 7.949 13.6667 8.5005 13.6667C9.052 13.6667 9.5005 14.165 9.5005 14.7778C9.5005 15.3906 9.052 15.8889 8.5005 15.8889ZM15.5005 15.8889C14.949 15.8889 14.5005 15.3906 14.5005 14.7778C14.5005 14.165 14.949 13.6667 15.5005 13.6667C16.052 13.6667 16.5005 14.165 16.5005 14.7778C16.5005 15.3906 16.052 15.8889 15.5005 15.8889ZM18.0005 13.6667C18.0005 13.9728 17.776 14.2222 17.5005 14.2222H17.4295C17.206 13.2667 16.4295 12.5556 15.5005 12.5556C14.5715 12.5556 13.795 13.2667 13.5715 14.2222H10.4295C10.206 13.2667 9.4295 12.5556 8.5005 12.5556C7.5715 12.5556 6.795 13.2667 6.5715 14.2222H6.5005C6.225 14.2222 6.0005 13.9728 6.0005 13.6667V11.4444C6.0005 11.1383 6.225 10.8889 6.5005 10.8889H17.5005C17.776 10.8889 18.0005 11.1383 18.0005 11.4444V13.6667Z" fill="white"/>
</svg>
