<svg width="16" height="12" viewBox="0 0 16 12" fill="none" xmlns="http://www.w3.org/2000/svg">
<path d="M16 3.68928L8 0L0 3.68928V4.42059L2.73784 5.68316C2.362 6.45487 2.15084 7.32097 2.15084 8.2355V8.53516L8 11.2407L13.8492 8.53516V8.2355C13.8492 7.32097 13.638 6.45491 13.2622 5.68316L15.0625 4.85294V9.71397H16V3.68928ZM8 10.2077L3.09713 7.93991C3.13548 7.29199 3.30284 6.65825 3.58938 6.07587L8 8.10984L12.4106 6.07584C12.6972 6.65822 12.8645 7.29196 12.9029 7.93988L8 10.2077ZM8 7.07744L1.44575 4.05494L8 1.03241L14.5542 4.05494L8 7.07744Z" fill="#00C8B3"/>
</svg>
