<svg width="18" height="14" viewBox="0 0 18 14" fill="none" xmlns="http://www.w3.org/2000/svg">
<path d="M9.3638 0.333984C9.63459 0.333984 9.85461 0.547725 9.85461 0.811573V2.81588C9.85461 3.13688 10.1286 3.40308 10.4591 3.40308C10.7976 3.40308 11.0635 3.13688 11.0635 2.81588V0.811573C11.0635 0.547725 11.2835 0.333984 11.5551 0.333984H14.1825C15.9233 0.333984 17.3337 1.70412 17.3337 3.39525V5.36824C17.3337 5.52482 17.2692 5.67358 17.1564 5.78319C17.0435 5.8928 16.8904 5.95544 16.7292 5.95544C16.1328 5.95544 15.6493 6.4252 15.6493 6.99674C15.6493 7.57219 16.1272 8.0396 16.7179 8.04587C17.0508 8.049 17.3337 8.27448 17.3337 8.59783V10.6061C17.3337 12.2964 15.9233 13.6673 14.1825 13.6673H11.5551C11.2835 13.6673 11.0635 13.4536 11.0635 13.1897V11.4986C11.0635 11.1698 10.7976 10.9114 10.4591 10.9114C10.1286 10.9114 9.85461 11.1698 9.85461 11.4986V13.1897C9.85461 13.4536 9.63459 13.6673 9.3638 13.6673H3.81819C2.08543 13.6673 0.666992 12.2972 0.666992 10.6061V8.59783C0.666992 8.27448 0.949874 8.049 1.28272 8.04587C1.87428 8.0396 2.35139 7.57219 2.35139 6.99674C2.35139 6.44085 1.88395 6.01807 1.27144 6.01807C1.11025 6.01807 0.957128 5.95544 0.844297 5.84583C0.731467 5.73622 0.666992 5.58746 0.666992 5.43087V3.40308C0.666992 1.71508 2.08866 0.333984 3.82624 0.333984H9.3638ZM10.4591 5.08638C10.1286 5.08638 9.85461 5.35258 9.85461 5.67358V8.80531C9.85461 9.12631 10.1286 9.39251 10.4591 9.39251C10.7976 9.39251 11.0635 9.12631 11.0635 8.80531V5.67358C11.0635 5.35258 10.7976 5.08638 10.4591 5.08638Z" fill="#516CE8"/>
</svg>
