<svg width="16" height="14" viewBox="0 0 16 14" fill="none" xmlns="http://www.w3.org/2000/svg">
<path d="M13.461 1.67416C13.1205 1.3335 12.7162 1.06326 12.2712 0.878882C11.8262 0.694508 11.3493 0.599609 10.8676 0.599609C10.386 0.599609 9.90903 0.694508 9.46406 0.878882C9.01908 1.06326 8.6148 1.3335 8.27429 1.67416L7.56763 2.38083L6.86096 1.67416C6.17316 0.986365 5.24031 0.599966 4.26762 0.599966C3.29494 0.599966 2.36209 0.986365 1.67429 1.67416C0.986497 2.36195 0.600098 3.2948 0.600098 4.26749C0.600098 5.24018 0.986497 6.17303 1.67429 6.86083L2.38096 7.56749L7.56763 12.7542L12.7543 7.56749L13.461 6.86083C13.8016 6.52032 14.0719 6.11603 14.2562 5.67106C14.4406 5.22609 14.5355 4.74915 14.5355 4.26749C14.5355 3.78583 14.4406 3.3089 14.2562 2.86392C14.0719 2.41895 13.8016 2.01466 13.461 1.67416Z" stroke="#6155F5" stroke-width="1.2" stroke-linecap="round" stroke-linejoin="round"/>
</svg>
